<?xml version="1.0" standalone="yes"?>
<svg xmlns="http://www.w3.org/2000/svg" width="980" height="588">
<path style="fill:#585858; stroke:none;" d="M0 0L2 2L0 0z"/>
<path style="fill:#010101; stroke:none;" d="M1 0C12.8523 20.5278 32.4167 38.7738 47.5864 57L141.753 170C218.975 262.666 296.249 355.288 373.414 448C411.827 494.152 452.865 539.052 489 587L491 587C527.135 539.052 568.173 494.153 606.586 448C683.751 355.287 761.026 262.665 838.247 170L932.414 57C947.583 38.7737 967.148 20.5278 979 0L1 0z"/>
<path style="fill:#585858; stroke:none;" d="M979 0L978 2L979 0z"/>
<path style="fill:#ffffff; stroke:none;" d="M0 1L0 588L489 588L468.414 562L428.414 514L300.08 360L98.4136 118L33.4136 40L0 1M979 1C869.399 136.043 756.345 268.455 644.92 402L540.753 527C524.906 546.017 502.337 566.029 491 588L980 588L980 172L980 52C980 37.7002 984.506 14.1205 979 1z"/>
<path style="fill:#272727; stroke:none;" d="M2 2L3 3L2 2M977 2L978 3L977 2z"/>
<path style="fill:#a8a8a8; stroke:none;" d="M3 4L4 5L3 4M976 4L977 5L976 4M4 5L5 6L4 5M975 5L976 6L975 5z"/>
<path style="fill:#585858; stroke:none;" d="M5 6L6 7L5 6M974 6L975 7L974 6M6 7L7 8L6 7M973 7L974 8L973 7z"/>
<path style="fill:#272727; stroke:none;" d="M7 8L8 9L7 8M972 8L973 9L972 8z"/>
<path style="fill:#a8a8a8; stroke:none;" d="M8 10L9 11L8 10M971 10L972 11L971 10M9 11L10 12L9 11M970 11L971 12L970 11z"/>
<path style="fill:#585858; stroke:none;" d="M10 12L11 13L10 12M969 12L970 13L969 12M11 13L12 14L11 13M968 13L969 14L968 13z"/>
<path style="fill:#272727; stroke:none;" d="M12 14L13 15L12 14M967 14L968 15L967 14z"/>
<path style="fill:#a8a8a8; stroke:none;" d="M13 16L14 17L13 16M966 16L967 17L966 16M14 17L15 18L14 17M965 17L966 18L965 17z"/>
<path style="fill:#585858; stroke:none;" d="M15 18L16 19L15 18M964 18L965 19L964 18M16 19L17 20L16 19M963 19L964 20L963 19z"/>
<path style="fill:#272727; stroke:none;" d="M17 20L18 21L17 20M962 20L963 21L962 20z"/>
<path style="fill:#a8a8a8; stroke:none;" d="M18 22L19 23L18 22M961 22L962 23L961 22M19 23L20 24L19 23M960 23L961 24L960 23z"/>
<path style="fill:#585858; stroke:none;" d="M20 24L21 25L20 24M959 24L960 25L959 24M21 25L22 26L21 25M958 25L959 26L958 25z"/>
<path style="fill:#272727; stroke:none;" d="M22 26L23 27L22 26M957 26L958 27L957 26z"/>
<path style="fill:#a8a8a8; stroke:none;" d="M23 28L24 29L23 28M956 28L957 29L956 28M24 29L25 30L24 29M955 29L956 30L955 29z"/>
<path style="fill:#585858; stroke:none;" d="M25 30L26 31L25 30M954 30L955 31L954 30M26 31L27 32L26 31M953 31L954 32L953 31z"/>
<path style="fill:#272727; stroke:none;" d="M27 32L28 33L27 32M952 32L953 33L952 32z"/>
<path style="fill:#a8a8a8; stroke:none;" d="M28 34L29 35L28 34M951 34L952 35L951 34M29 35L30 36L29 35M950 35L951 36L950 35z"/>
<path style="fill:#585858; stroke:none;" d="M30 36L31 37L30 36M949 36L950 37L949 36M31 37L32 38L31 37M948 37L949 38L948 37z"/>
<path style="fill:#272727; stroke:none;" d="M32 38L33 39L32 38M947 38L948 39L947 38z"/>
<path style="fill:#a8a8a8; stroke:none;" d="M33 40L34 41L33 40M946 40L947 41L946 40M34 41L35 42L34 41M945 41L946 42L945 41z"/>
<path style="fill:#585858; stroke:none;" d="M35 42L36 43L35 42M944 42L945 43L944 42M36 43L37 44L36 43M943 43L944 44L943 43z"/>
<path style="fill:#272727; stroke:none;" d="M37 44L38 45L37 44M942 44L943 45L942 44z"/>
<path style="fill:#a8a8a8; stroke:none;" d="M38 46L39 47L38 46M941 46L942 47L941 46M39 47L40 48L39 47M940 47L941 48L940 47z"/>
<path style="fill:#585858; stroke:none;" d="M40 48L41 49L40 48M939 48L940 49L939 48M41 49L42 50L41 49M938 49L939 50L938 49z"/>
<path style="fill:#272727; stroke:none;" d="M42 50L43 51L42 50M937 50L938 51L937 50z"/>
<path style="fill:#a8a8a8; stroke:none;" d="M43 52L44 53L43 52M936 52L937 53L936 52M44 53L45 54L44 53M935 53L936 54L935 53z"/>
<path style="fill:#585858; stroke:none;" d="M45 54L46 55L45 54M934 54L935 55L934 54M46 55L47 56L46 55M933 55L934 56L933 55z"/>
<path style="fill:#272727; stroke:none;" d="M47 56L48 57L47 56M932 56L933 57L932 56z"/>
<path style="fill:#a8a8a8; stroke:none;" d="M48 58L49 59L48 58M931 58L932 59L931 58M49 59L50 60L49 59M930 59L931 60L930 59z"/>
<path style="fill:#585858; stroke:none;" d="M50 60L51 61L50 60M929 60L930 61L929 60M51 61L52 62L51 61M928 61L929 62L928 61z"/>
<path style="fill:#272727; stroke:none;" d="M52 62L53 63L52 62M927 62L928 63L927 62z"/>
<path style="fill:#a8a8a8; stroke:none;" d="M53 64L54 65L53 64M926 64L927 65L926 64M54 65L55 66L54 65M925 65L926 66L925 65z"/>
<path style="fill:#585858; stroke:none;" d="M55 66L56 67L55 66M924 66L925 67L924 66M56 67L57 68L56 67M923 67L924 68L923 67z"/>
<path style="fill:#272727; stroke:none;" d="M57 68L58 69L57 68M922 68L923 69L922 68z"/>
<path style="fill:#a8a8a8; stroke:none;" d="M58 70L59 71L58 70M921 70L922 71L921 70M59 71L60 72L59 71M920 71L921 72L920 71z"/>
<path style="fill:#585858; stroke:none;" d="M60 72L61 73L60 72M919 72L920 73L919 72M61 73L62 74L61 73M918 73L919 74L918 73z"/>
<path style="fill:#272727; stroke:none;" d="M62 74L63 75L62 74M917 74L918 75L917 74z"/>
<path style="fill:#a8a8a8; stroke:none;" d="M63 76L64 77L63 76M916 76L917 77L916 76M64 77L65 78L64 77M915 77L916 78L915 77z"/>
<path style="fill:#585858; stroke:none;" d="M65 78L66 79L65 78M914 78L915 79L914 78M66 79L67 80L66 79M913 79L914 80L913 79z"/>
<path style="fill:#272727; stroke:none;" d="M67 80L68 81L67 80M912 80L913 81L912 80z"/>
<path style="fill:#a8a8a8; stroke:none;" d="M68 82L69 83L68 82M911 82L912 83L911 82M69 83L70 84L69 83M910 83L911 84L910 83z"/>
<path style="fill:#585858; stroke:none;" d="M70 84L71 85L70 84M909 84L910 85L909 84M71 85L72 86L71 85M908 85L909 86L908 85z"/>
<path style="fill:#272727; stroke:none;" d="M72 86L73 87L72 86M907 86L908 87L907 86z"/>
<path style="fill:#a8a8a8; stroke:none;" d="M73 88L74 89L73 88M906 88L907 89L906 88M74 89L75 90L74 89M905 89L906 90L905 89z"/>
<path style="fill:#585858; stroke:none;" d="M75 90L76 91L75 90M904 90L905 91L904 90M76 91L77 92L76 91M903 91L904 92L903 91z"/>
<path style="fill:#272727; stroke:none;" d="M77 92L78 93L77 92M902 92L903 93L902 92z"/>
<path style="fill:#a8a8a8; stroke:none;" d="M78 94L79 95L78 94M901 94L902 95L901 94M79 95L80 96L79 95M900 95L901 96L900 95z"/>
<path style="fill:#585858; stroke:none;" d="M80 96L81 97L80 96M899 96L900 97L899 96M81 97L82 98L81 97M898 97L899 98L898 97z"/>
<path style="fill:#272727; stroke:none;" d="M82 98L83 99L82 98M897 98L898 99L897 98z"/>
<path style="fill:#a8a8a8; stroke:none;" d="M83 100L84 101L83 100M896 100L897 101L896 100M84 101L85 102L84 101M895 101L896 102L895 101z"/>
<path style="fill:#585858; stroke:none;" d="M85 102L86 103L85 102M894 102L895 103L894 102M86 103L87 104L86 103M893 103L894 104L893 103z"/>
<path style="fill:#272727; stroke:none;" d="M87 104L88 105L87 104M892 104L893 105L892 104z"/>
<path style="fill:#a8a8a8; stroke:none;" d="M88 106L89 107L88 106M891 106L892 107L891 106M89 107L90 108L89 107M890 107L891 108L890 107z"/>
<path style="fill:#585858; stroke:none;" d="M90 108L91 109L90 108M889 108L890 109L889 108M91 109L92 110L91 109M888 109L889 110L888 109z"/>
<path style="fill:#272727; stroke:none;" d="M92 110L93 111L92 110M887 110L888 111L887 110z"/>
<path style="fill:#a8a8a8; stroke:none;" d="M93 112L94 113L93 112M886 112L887 113L886 112M94 113L95 114L94 113M885 113L886 114L885 113z"/>
<path style="fill:#585858; stroke:none;" d="M95 114L96 115L95 114M884 114L885 115L884 114M96 115L97 116L96 115M883 115L884 116L883 115z"/>
<path style="fill:#272727; stroke:none;" d="M97 116L98 117L97 116M882 116L883 117L882 116z"/>
<path style="fill:#a8a8a8; stroke:none;" d="M98 118L99 119L98 118M881 118L882 119L881 118M99 119L100 120L99 119M880 119L881 120L880 119z"/>
<path style="fill:#585858; stroke:none;" d="M100 120L101 121L100 120M879 120L880 121L879 120M101 121L102 122L101 121M878 121L879 122L878 121z"/>
<path style="fill:#272727; stroke:none;" d="M102 122L103 123L102 122M877 122L878 123L877 122z"/>
<path style="fill:#a8a8a8; stroke:none;" d="M103 124L104 125L103 124M876 124L877 125L876 124M104 125L105 126L104 125M875 125L876 126L875 125z"/>
<path style="fill:#585858; stroke:none;" d="M105 126L106 127L105 126M874 126L875 127L874 126M106 127L107 128L106 127M873 127L874 128L873 127z"/>
<path style="fill:#272727; stroke:none;" d="M107 128L108 129L107 128M872 128L873 129L872 128z"/>
<path style="fill:#a8a8a8; stroke:none;" d="M108 130L109 131L108 130M871 130L872 131L871 130M109 131L110 132L109 131M870 131L871 132L870 131z"/>
<path style="fill:#585858; stroke:none;" d="M110 132L111 133L110 132M869 132L870 133L869 132M111 133L112 134L111 133M868 133L869 134L868 133z"/>
<path style="fill:#272727; stroke:none;" d="M112 134L113 135L112 134M867 134L868 135L867 134z"/>
<path style="fill:#a8a8a8; stroke:none;" d="M113 136L114 137L113 136M866 136L867 137L866 136M114 137L115 138L114 137M865 137L866 138L865 137z"/>
<path style="fill:#585858; stroke:none;" d="M115 138L116 139L115 138M864 138L865 139L864 138M116 139L117 140L116 139M863 139L864 140L863 139z"/>
<path style="fill:#272727; stroke:none;" d="M117 140L118 141L117 140M862 140L863 141L862 140z"/>
<path style="fill:#a8a8a8; stroke:none;" d="M118 142L119 143L118 142M861 142L862 143L861 142M119 143L120 144L119 143M860 143L861 144L860 143z"/>
<path style="fill:#585858; stroke:none;" d="M120 144L121 145L120 144M859 144L860 145L859 144M121 145L122 146L121 145M858 145L859 146L858 145z"/>
<path style="fill:#272727; stroke:none;" d="M122 146L123 147L122 146M857 146L858 147L857 146z"/>
<path style="fill:#a8a8a8; stroke:none;" d="M123 148L124 149L123 148M856 148L857 149L856 148M124 149L125 150L124 149M855 149L856 150L855 149z"/>
<path style="fill:#585858; stroke:none;" d="M125 150L126 151L125 150M854 150L855 151L854 150M126 151L127 152L126 151M853 151L854 152L853 151z"/>
<path style="fill:#272727; stroke:none;" d="M127 152L128 153L127 152M852 152L853 153L852 152z"/>
<path style="fill:#a8a8a8; stroke:none;" d="M128 154L129 155L128 154M851 154L852 155L851 154M129 155L130 156L129 155M850 155L851 156L850 155z"/>
<path style="fill:#585858; stroke:none;" d="M130 156L131 157L130 156M849 156L850 157L849 156M131 157L132 158L131 157M848 157L849 158L848 157z"/>
<path style="fill:#272727; stroke:none;" d="M132 158L133 159L132 158M847 158L848 159L847 158z"/>
<path style="fill:#a8a8a8; stroke:none;" d="M133 160L134 161L133 160M846 160L847 161L846 160M134 161L135 162L134 161M845 161L846 162L845 161z"/>
<path style="fill:#585858; stroke:none;" d="M135 162L136 163L135 162M844 162L845 163L844 162M136 163L137 164L136 163M843 163L844 164L843 163z"/>
<path style="fill:#272727; stroke:none;" d="M137 164L138 165L137 164M842 164L843 165L842 164z"/>
<path style="fill:#a8a8a8; stroke:none;" d="M138 166L139 167L138 166M841 166L842 167L841 166M139 167L140 168L139 167M840 167L841 168L840 167z"/>
<path style="fill:#585858; stroke:none;" d="M140 168L141 169L140 168M839 168L840 169L839 168M141 169L142 170L141 169M838 169L839 170L838 169z"/>
<path style="fill:#272727; stroke:none;" d="M142 170L143 171L142 170M837 170L838 171L837 170z"/>
<path style="fill:#a8a8a8; stroke:none;" d="M143 172L144 173L143 172M836 172L837 173L836 172M144 173L145 174L144 173M835 173L836 174L835 173z"/>
<path style="fill:#585858; stroke:none;" d="M145 174L146 175L145 174M834 174L835 175L834 174M146 175L147 176L146 175M833 175L834 176L833 175z"/>
<path style="fill:#272727; stroke:none;" d="M147 176L148 177L147 176M832 176L833 177L832 176z"/>
<path style="fill:#a8a8a8; stroke:none;" d="M148 178L149 179L148 178M831 178L832 179L831 178M149 179L150 180L149 179M830 179L831 180L830 179z"/>
<path style="fill:#585858; stroke:none;" d="M150 180L151 181L150 180M829 180L830 181L829 180M151 181L152 182L151 181M828 181L829 182L828 181z"/>
<path style="fill:#272727; stroke:none;" d="M152 182L153 183L152 182M827 182L828 183L827 182z"/>
<path style="fill:#a8a8a8; stroke:none;" d="M153 184L154 185L153 184M826 184L827 185L826 184M154 185L155 186L154 185M825 185L826 186L825 185z"/>
<path style="fill:#585858; stroke:none;" d="M155 186L156 187L155 186M824 186L825 187L824 186M156 187L157 188L156 187M823 187L824 188L823 187z"/>
<path style="fill:#272727; stroke:none;" d="M157 188L158 189L157 188M822 188L823 189L822 188z"/>
<path style="fill:#a8a8a8; stroke:none;" d="M158 190L159 191L158 190M821 190L822 191L821 190M159 191L160 192L159 191M820 191L821 192L820 191z"/>
<path style="fill:#585858; stroke:none;" d="M160 192L161 193L160 192M819 192L820 193L819 192M161 193L162 194L161 193M818 193L819 194L818 193z"/>
<path style="fill:#272727; stroke:none;" d="M162 194L163 195L162 194M817 194L818 195L817 194z"/>
<path style="fill:#a8a8a8; stroke:none;" d="M163 196L164 197L163 196M816 196L817 197L816 196M164 197L165 198L164 197M815 197L816 198L815 197z"/>
<path style="fill:#585858; stroke:none;" d="M165 198L166 199L165 198M814 198L815 199L814 198M166 199L167 200L166 199M813 199L814 200L813 199z"/>
<path style="fill:#272727; stroke:none;" d="M167 200L168 201L167 200M812 200L813 201L812 200z"/>
<path style="fill:#a8a8a8; stroke:none;" d="M168 202L169 203L168 202M811 202L812 203L811 202M169 203L170 204L169 203M810 203L811 204L810 203z"/>
<path style="fill:#585858; stroke:none;" d="M170 204L171 205L170 204M809 204L810 205L809 204M171 205L172 206L171 205M808 205L809 206L808 205z"/>
<path style="fill:#272727; stroke:none;" d="M172 206L173 207L172 206M807 206L808 207L807 206z"/>
<path style="fill:#a8a8a8; stroke:none;" d="M173 208L174 209L173 208M806 208L807 209L806 208M174 209L175 210L174 209M805 209L806 210L805 209z"/>
<path style="fill:#585858; stroke:none;" d="M175 210L176 211L175 210M804 210L805 211L804 210M176 211L177 212L176 211M803 211L804 212L803 211z"/>
<path style="fill:#272727; stroke:none;" d="M177 212L178 213L177 212M802 212L803 213L802 212z"/>
<path style="fill:#a8a8a8; stroke:none;" d="M178 214L179 215L178 214M801 214L802 215L801 214M179 215L180 216L179 215M800 215L801 216L800 215z"/>
<path style="fill:#585858; stroke:none;" d="M180 216L181 217L180 216M799 216L800 217L799 216M181 217L182 218L181 217M798 217L799 218L798 217z"/>
<path style="fill:#272727; stroke:none;" d="M182 218L183 219L182 218M797 218L798 219L797 218z"/>
<path style="fill:#a8a8a8; stroke:none;" d="M183 220L184 221L183 220M796 220L797 221L796 220M184 221L185 222L184 221M795 221L796 222L795 221z"/>
<path style="fill:#585858; stroke:none;" d="M185 222L186 223L185 222M794 222L795 223L794 222M186 223L187 224L186 223M793 223L794 224L793 223z"/>
<path style="fill:#272727; stroke:none;" d="M187 224L188 225L187 224M792 224L793 225L792 224z"/>
<path style="fill:#a8a8a8; stroke:none;" d="M188 226L189 227L188 226M791 226L792 227L791 226M189 227L190 228L189 227M790 227L791 228L790 227z"/>
<path style="fill:#585858; stroke:none;" d="M190 228L191 229L190 228M789 228L790 229L789 228M191 229L192 230L191 229M788 229L789 230L788 229z"/>
<path style="fill:#272727; stroke:none;" d="M192 230L193 231L192 230M787 230L788 231L787 230z"/>
<path style="fill:#a8a8a8; stroke:none;" d="M193 232L194 233L193 232M786 232L787 233L786 232M194 233L195 234L194 233M785 233L786 234L785 233z"/>
<path style="fill:#585858; stroke:none;" d="M195 234L196 235L195 234M784 234L785 235L784 234M196 235L197 236L196 235M783 235L784 236L783 235z"/>
<path style="fill:#272727; stroke:none;" d="M197 236L198 237L197 236M782 236L783 237L782 236z"/>
<path style="fill:#a8a8a8; stroke:none;" d="M198 238L199 239L198 238M781 238L782 239L781 238M199 239L200 240L199 239M780 239L781 240L780 239z"/>
<path style="fill:#585858; stroke:none;" d="M200 240L201 241L200 240M779 240L780 241L779 240M201 241L202 242L201 241M778 241L779 242L778 241z"/>
<path style="fill:#272727; stroke:none;" d="M202 242L203 243L202 242M777 242L778 243L777 242z"/>
<path style="fill:#a8a8a8; stroke:none;" d="M203 244L204 245L203 244M776 244L777 245L776 244M204 245L205 246L204 245M775 245L776 246L775 245z"/>
<path style="fill:#585858; stroke:none;" d="M205 246L206 247L205 246M774 246L775 247L774 246M206 247L207 248L206 247M773 247L774 248L773 247z"/>
<path style="fill:#272727; stroke:none;" d="M207 248L208 249L207 248M772 248L773 249L772 248z"/>
<path style="fill:#a8a8a8; stroke:none;" d="M208 250L209 251L208 250M771 250L772 251L771 250M209 251L210 252L209 251M770 251L771 252L770 251z"/>
<path style="fill:#585858; stroke:none;" d="M210 252L211 253L210 252M769 252L770 253L769 252M211 253L212 254L211 253M768 253L769 254L768 253z"/>
<path style="fill:#272727; stroke:none;" d="M212 254L213 255L212 254M767 254L768 255L767 254z"/>
<path style="fill:#a8a8a8; stroke:none;" d="M213 256L214 257L213 256M766 256L767 257L766 256M214 257L215 258L214 257M765 257L766 258L765 257z"/>
<path style="fill:#585858; stroke:none;" d="M215 258L216 259L215 258M764 258L765 259L764 258M216 259L217 260L216 259M763 259L764 260L763 259z"/>
<path style="fill:#272727; stroke:none;" d="M217 260L218 261L217 260M762 260L763 261L762 260z"/>
<path style="fill:#a8a8a8; stroke:none;" d="M218 262L219 263L218 262M761 262L762 263L761 262M219 263L220 264L219 263M760 263L761 264L760 263z"/>
<path style="fill:#585858; stroke:none;" d="M220 264L221 265L220 264M759 264L760 265L759 264M221 265L222 266L221 265M758 265L759 266L758 265z"/>
<path style="fill:#272727; stroke:none;" d="M222 266L223 267L222 266M757 266L758 267L757 266z"/>
<path style="fill:#a8a8a8; stroke:none;" d="M223 268L224 269L223 268M756 268L757 269L756 268M224 269L225 270L224 269M755 269L756 270L755 269z"/>
<path style="fill:#585858; stroke:none;" d="M225 270L226 271L225 270M754 270L755 271L754 270M226 271L227 272L226 271M753 271L754 272L753 271z"/>
<path style="fill:#272727; stroke:none;" d="M227 272L228 273L227 272M752 272L753 273L752 272z"/>
<path style="fill:#a8a8a8; stroke:none;" d="M228 274L229 275L228 274M751 274L752 275L751 274M229 275L230 276L229 275M750 275L751 276L750 275z"/>
<path style="fill:#585858; stroke:none;" d="M230 276L231 277L230 276M749 276L750 277L749 276M231 277L232 278L231 277M748 277L749 278L748 277z"/>
<path style="fill:#272727; stroke:none;" d="M232 278L233 279L232 278M747 278L748 279L747 278z"/>
<path style="fill:#a8a8a8; stroke:none;" d="M233 280L234 281L233 280M746 280L747 281L746 280M234 281L235 282L234 281M745 281L746 282L745 281z"/>
<path style="fill:#585858; stroke:none;" d="M235 282L236 283L235 282M744 282L745 283L744 282M236 283L237 284L236 283M743 283L744 284L743 283z"/>
<path style="fill:#272727; stroke:none;" d="M237 284L238 285L237 284M742 284L743 285L742 284z"/>
<path style="fill:#a8a8a8; stroke:none;" d="M238 286L239 287L238 286M741 286L742 287L741 286M239 287L240 288L239 287M740 287L741 288L740 287z"/>
<path style="fill:#585858; stroke:none;" d="M240 288L241 289L240 288M739 288L740 289L739 288M241 289L242 290L241 289M738 289L739 290L738 289z"/>
<path style="fill:#272727; stroke:none;" d="M242 290L243 291L242 290M737 290L738 291L737 290z"/>
<path style="fill:#a8a8a8; stroke:none;" d="M243 292L244 293L243 292M736 292L737 293L736 292M244 293L245 294L244 293M735 293L736 294L735 293z"/>
<path style="fill:#585858; stroke:none;" d="M245 294L246 295L245 294M734 294L735 295L734 294M246 295L247 296L246 295M733 295L734 296L733 295z"/>
<path style="fill:#272727; stroke:none;" d="M247 296L248 297L247 296M732 296L733 297L732 296z"/>
<path style="fill:#a8a8a8; stroke:none;" d="M248 298L249 299L248 298M731 298L732 299L731 298M249 299L250 300L249 299M730 299L731 300L730 299z"/>
<path style="fill:#585858; stroke:none;" d="M250 300L251 301L250 300M729 300L730 301L729 300M251 301L252 302L251 301M728 301L729 302L728 301z"/>
<path style="fill:#272727; stroke:none;" d="M252 302L253 303L252 302M727 302L728 303L727 302z"/>
<path style="fill:#a8a8a8; stroke:none;" d="M253 304L254 305L253 304M726 304L727 305L726 304M254 305L255 306L254 305M725 305L726 306L725 305z"/>
<path style="fill:#585858; stroke:none;" d="M255 306L256 307L255 306M724 306L725 307L724 306M256 307L257 308L256 307M723 307L724 308L723 307z"/>
<path style="fill:#272727; stroke:none;" d="M257 308L258 309L257 308M722 308L723 309L722 308z"/>
<path style="fill:#a8a8a8; stroke:none;" d="M258 310L259 311L258 310M721 310L722 311L721 310M259 311L260 312L259 311M720 311L721 312L720 311z"/>
<path style="fill:#585858; stroke:none;" d="M260 312L261 313L260 312M719 312L720 313L719 312M261 313L262 314L261 313M718 313L719 314L718 313z"/>
<path style="fill:#272727; stroke:none;" d="M262 314L263 315L262 314M717 314L718 315L717 314z"/>
<path style="fill:#a8a8a8; stroke:none;" d="M263 316L264 317L263 316M716 316L717 317L716 316M264 317L265 318L264 317M715 317L716 318L715 317z"/>
<path style="fill:#585858; stroke:none;" d="M265 318L266 319L265 318M714 318L715 319L714 318M266 319L267 320L266 319M713 319L714 320L713 319z"/>
<path style="fill:#272727; stroke:none;" d="M267 320L268 321L267 320M712 320L713 321L712 320z"/>
<path style="fill:#a8a8a8; stroke:none;" d="M268 322L269 323L268 322M711 322L712 323L711 322M269 323L270 324L269 323M710 323L711 324L710 323z"/>
<path style="fill:#585858; stroke:none;" d="M270 324L271 325L270 324M709 324L710 325L709 324M271 325L272 326L271 325M708 325L709 326L708 325z"/>
<path style="fill:#272727; stroke:none;" d="M272 326L273 327L272 326M707 326L708 327L707 326z"/>
<path style="fill:#a8a8a8; stroke:none;" d="M273 328L274 329L273 328M706 328L707 329L706 328M274 329L275 330L274 329M705 329L706 330L705 329z"/>
<path style="fill:#585858; stroke:none;" d="M275 330L276 331L275 330M704 330L705 331L704 330M276 331L277 332L276 331M703 331L704 332L703 331z"/>
<path style="fill:#272727; stroke:none;" d="M277 332L278 333L277 332M702 332L703 333L702 332z"/>
<path style="fill:#a8a8a8; stroke:none;" d="M278 334L279 335L278 334M701 334L702 335L701 334M279 335L280 336L279 335M700 335L701 336L700 335z"/>
<path style="fill:#585858; stroke:none;" d="M280 336L281 337L280 336M699 336L700 337L699 336M281 337L282 338L281 337M698 337L699 338L698 337z"/>
<path style="fill:#272727; stroke:none;" d="M282 338L283 339L282 338M697 338L698 339L697 338z"/>
<path style="fill:#a8a8a8; stroke:none;" d="M283 340L284 341L283 340M696 340L697 341L696 340M284 341L285 342L284 341M695 341L696 342L695 341z"/>
<path style="fill:#585858; stroke:none;" d="M285 342L286 343L285 342M694 342L695 343L694 342M286 343L287 344L286 343M693 343L694 344L693 343z"/>
<path style="fill:#272727; stroke:none;" d="M287 344L288 345L287 344M692 344L693 345L692 344z"/>
<path style="fill:#a8a8a8; stroke:none;" d="M288 346L289 347L288 346M691 346L692 347L691 346M289 347L290 348L289 347M690 347L691 348L690 347z"/>
<path style="fill:#585858; stroke:none;" d="M290 348L291 349L290 348M689 348L690 349L689 348M291 349L292 350L291 349M688 349L689 350L688 349z"/>
<path style="fill:#272727; stroke:none;" d="M292 350L293 351L292 350M687 350L688 351L687 350z"/>
<path style="fill:#a8a8a8; stroke:none;" d="M293 352L294 353L293 352M686 352L687 353L686 352M294 353L295 354L294 353M685 353L686 354L685 353z"/>
<path style="fill:#585858; stroke:none;" d="M295 354L296 355L295 354M684 354L685 355L684 354M296 355L297 356L296 355M683 355L684 356L683 355z"/>
<path style="fill:#272727; stroke:none;" d="M297 356L298 357L297 356M682 356L683 357L682 356z"/>
<path style="fill:#a8a8a8; stroke:none;" d="M298 358L299 359L298 358M681 358L682 359L681 358M299 359L300 360L299 359M680 359L681 360L680 359z"/>
<path style="fill:#585858; stroke:none;" d="M300 360L301 361L300 360M679 360L680 361L679 360M301 361L302 362L301 361M678 361L679 362L678 361z"/>
<path style="fill:#272727; stroke:none;" d="M302 362L303 363L302 362M677 362L678 363L677 362z"/>
<path style="fill:#a8a8a8; stroke:none;" d="M303 364L304 365L303 364M676 364L677 365L676 364M304 365L305 366L304 365M675 365L676 366L675 365z"/>
<path style="fill:#585858; stroke:none;" d="M305 366L306 367L305 366M674 366L675 367L674 366M306 367L307 368L306 367M673 367L674 368L673 367z"/>
<path style="fill:#272727; stroke:none;" d="M307 368L308 369L307 368M672 368L673 369L672 368z"/>
<path style="fill:#a8a8a8; stroke:none;" d="M308 370L309 371L308 370M671 370L672 371L671 370M309 371L310 372L309 371M670 371L671 372L670 371z"/>
<path style="fill:#585858; stroke:none;" d="M310 372L311 373L310 372M669 372L670 373L669 372M311 373L312 374L311 373M668 373L669 374L668 373z"/>
<path style="fill:#272727; stroke:none;" d="M312 374L313 375L312 374M667 374L668 375L667 374z"/>
<path style="fill:#a8a8a8; stroke:none;" d="M313 376L314 377L313 376M666 376L667 377L666 376M314 377L315 378L314 377M665 377L666 378L665 377z"/>
<path style="fill:#585858; stroke:none;" d="M315 378L316 379L315 378M664 378L665 379L664 378M316 379L317 380L316 379M663 379L664 380L663 379z"/>
<path style="fill:#272727; stroke:none;" d="M317 380L318 381L317 380M662 380L663 381L662 380z"/>
<path style="fill:#a8a8a8; stroke:none;" d="M318 382L319 383L318 382M661 382L662 383L661 382M319 383L320 384L319 383M660 383L661 384L660 383z"/>
<path style="fill:#585858; stroke:none;" d="M320 384L321 385L320 384M659 384L660 385L659 384M321 385L322 386L321 385M658 385L659 386L658 385z"/>
<path style="fill:#272727; stroke:none;" d="M322 386L323 387L322 386M657 386L658 387L657 386z"/>
<path style="fill:#a8a8a8; stroke:none;" d="M323 388L324 389L323 388M656 388L657 389L656 388M324 389L325 390L324 389M655 389L656 390L655 389z"/>
<path style="fill:#585858; stroke:none;" d="M325 390L326 391L325 390M654 390L655 391L654 390M326 391L327 392L326 391M653 391L654 392L653 391z"/>
<path style="fill:#272727; stroke:none;" d="M327 392L328 393L327 392M652 392L653 393L652 392z"/>
<path style="fill:#a8a8a8; stroke:none;" d="M328 394L329 395L328 394M651 394L652 395L651 394M329 395L330 396L329 395M650 395L651 396L650 395z"/>
<path style="fill:#585858; stroke:none;" d="M330 396L331 397L330 396M649 396L650 397L649 396M331 397L332 398L331 397M648 397L649 398L648 397z"/>
<path style="fill:#272727; stroke:none;" d="M332 398L333 399L332 398M647 398L648 399L647 398z"/>
<path style="fill:#a8a8a8; stroke:none;" d="M333 400L334 401L333 400M646 400L647 401L646 400M334 401L335 402L334 401M645 401L646 402L645 401z"/>
<path style="fill:#585858; stroke:none;" d="M335 402L336 403L335 402M644 402L645 403L644 402M336 403L337 404L336 403M643 403L644 404L643 403z"/>
<path style="fill:#272727; stroke:none;" d="M337 404L338 405L337 404M642 404L643 405L642 404z"/>
<path style="fill:#a8a8a8; stroke:none;" d="M338 406L339 407L338 406M641 406L642 407L641 406M339 407L340 408L339 407M640 407L641 408L640 407z"/>
<path style="fill:#585858; stroke:none;" d="M340 408L341 409L340 408M639 408L640 409L639 408M341 409L342 410L341 409M638 409L639 410L638 409z"/>
<path style="fill:#272727; stroke:none;" d="M342 410L343 411L342 410M637 410L638 411L637 410z"/>
<path style="fill:#a8a8a8; stroke:none;" d="M343 412L344 413L343 412M636 412L637 413L636 412M344 413L345 414L344 413M635 413L636 414L635 413z"/>
<path style="fill:#585858; stroke:none;" d="M345 414L346 415L345 414M634 414L635 415L634 414M346 415L347 416L346 415M633 415L634 416L633 415z"/>
<path style="fill:#272727; stroke:none;" d="M347 416L348 417L347 416M632 416L633 417L632 416z"/>
<path style="fill:#a8a8a8; stroke:none;" d="M348 418L349 419L348 418M631 418L632 419L631 418M349 419L350 420L349 419M630 419L631 420L630 419z"/>
<path style="fill:#585858; stroke:none;" d="M350 420L351 421L350 420M629 420L630 421L629 420M351 421L352 422L351 421M628 421L629 422L628 421z"/>
<path style="fill:#272727; stroke:none;" d="M352 422L353 423L352 422M627 422L628 423L627 422z"/>
<path style="fill:#a8a8a8; stroke:none;" d="M353 424L354 425L353 424M626 424L627 425L626 424M354 425L355 426L354 425M625 425L626 426L625 425z"/>
<path style="fill:#585858; stroke:none;" d="M355 426L356 427L355 426M624 426L625 427L624 426M356 427L357 428L356 427M623 427L624 428L623 427z"/>
<path style="fill:#272727; stroke:none;" d="M357 428L358 429L357 428M622 428L623 429L622 428z"/>
<path style="fill:#a8a8a8; stroke:none;" d="M358 430L359 431L358 430M621 430L622 431L621 430M359 431L360 432L359 431M620 431L621 432L620 431z"/>
<path style="fill:#585858; stroke:none;" d="M360 432L361 433L360 432M619 432L620 433L619 432M361 433L362 434L361 433M618 433L619 434L618 433z"/>
<path style="fill:#272727; stroke:none;" d="M362 434L363 435L362 434M617 434L618 435L617 434z"/>
<path style="fill:#a8a8a8; stroke:none;" d="M363 436L364 437L363 436M616 436L617 437L616 436M364 437L365 438L364 437M615 437L616 438L615 437z"/>
<path style="fill:#585858; stroke:none;" d="M365 438L366 439L365 438M614 438L615 439L614 438M366 439L367 440L366 439M613 439L614 440L613 439z"/>
<path style="fill:#272727; stroke:none;" d="M367 440L368 441L367 440M612 440L613 441L612 440z"/>
<path style="fill:#a8a8a8; stroke:none;" d="M368 442L369 443L368 442M611 442L612 443L611 442M369 443L370 444L369 443M610 443L611 444L610 443z"/>
<path style="fill:#585858; stroke:none;" d="M370 444L371 445L370 444M609 444L610 445L609 444M371 445L372 446L371 445M608 445L609 446L608 445z"/>
<path style="fill:#272727; stroke:none;" d="M372 446L373 447L372 446M607 446L608 447L607 446z"/>
<path style="fill:#a8a8a8; stroke:none;" d="M373 448L374 449L373 448M606 448L607 449L606 448M374 449L375 450L374 449M605 449L606 450L605 449z"/>
<path style="fill:#585858; stroke:none;" d="M375 450L376 451L375 450M604 450L605 451L604 450M376 451L377 452L376 451M603 451L604 452L603 451z"/>
<path style="fill:#272727; stroke:none;" d="M377 452L378 453L377 452M602 452L603 453L602 452z"/>
<path style="fill:#a8a8a8; stroke:none;" d="M378 454L379 455L378 454M601 454L602 455L601 454M379 455L380 456L379 455M600 455L601 456L600 455z"/>
<path style="fill:#585858; stroke:none;" d="M380 456L381 457L380 456M599 456L600 457L599 456M381 457L382 458L381 457M598 457L599 458L598 457z"/>
<path style="fill:#272727; stroke:none;" d="M382 458L383 459L382 458M597 458L598 459L597 458z"/>
<path style="fill:#a8a8a8; stroke:none;" d="M383 460L384 461L383 460M596 460L597 461L596 460M384 461L385 462L384 461M595 461L596 462L595 461z"/>
<path style="fill:#585858; stroke:none;" d="M385 462L386 463L385 462M594 462L595 463L594 462M386 463L387 464L386 463M593 463L594 464L593 463z"/>
<path style="fill:#272727; stroke:none;" d="M387 464L388 465L387 464M592 464L593 465L592 464z"/>
<path style="fill:#a8a8a8; stroke:none;" d="M388 466L389 467L388 466M591 466L592 467L591 466M389 467L390 468L389 467M590 467L591 468L590 467z"/>
<path style="fill:#585858; stroke:none;" d="M390 468L391 469L390 468M589 468L590 469L589 468M391 469L392 470L391 469M588 469L589 470L588 469z"/>
<path style="fill:#272727; stroke:none;" d="M392 470L393 471L392 470M587 470L588 471L587 470z"/>
<path style="fill:#a8a8a8; stroke:none;" d="M393 472L394 473L393 472M586 472L587 473L586 472M394 473L395 474L394 473M585 473L586 474L585 473z"/>
<path style="fill:#585858; stroke:none;" d="M395 474L396 475L395 474M584 474L585 475L584 474M396 475L397 476L396 475M583 475L584 476L583 475z"/>
<path style="fill:#272727; stroke:none;" d="M397 476L398 477L397 476M582 476L583 477L582 476z"/>
<path style="fill:#a8a8a8; stroke:none;" d="M398 478L399 479L398 478M581 478L582 479L581 478M399 479L400 480L399 479M580 479L581 480L580 479z"/>
<path style="fill:#585858; stroke:none;" d="M400 480L401 481L400 480M579 480L580 481L579 480M401 481L402 482L401 481M578 481L579 482L578 481z"/>
<path style="fill:#272727; stroke:none;" d="M402 482L403 483L402 482M577 482L578 483L577 482z"/>
<path style="fill:#a8a8a8; stroke:none;" d="M403 484L404 485L403 484M576 484L577 485L576 484M404 485L405 486L404 485M575 485L576 486L575 485z"/>
<path style="fill:#585858; stroke:none;" d="M405 486L406 487L405 486M574 486L575 487L574 486M406 487L407 488L406 487M573 487L574 488L573 487z"/>
<path style="fill:#272727; stroke:none;" d="M407 488L408 489L407 488M572 488L573 489L572 488z"/>
<path style="fill:#a8a8a8; stroke:none;" d="M408 490L409 491L408 490M571 490L572 491L571 490M409 491L410 492L409 491M570 491L571 492L570 491z"/>
<path style="fill:#585858; stroke:none;" d="M410 492L411 493L410 492M569 492L570 493L569 492M411 493L412 494L411 493M568 493L569 494L568 493z"/>
<path style="fill:#272727; stroke:none;" d="M412 494L413 495L412 494M567 494L568 495L567 494z"/>
<path style="fill:#a8a8a8; stroke:none;" d="M413 496L414 497L413 496M566 496L567 497L566 496M414 497L415 498L414 497M565 497L566 498L565 497z"/>
<path style="fill:#585858; stroke:none;" d="M415 498L416 499L415 498M564 498L565 499L564 498M416 499L417 500L416 499M563 499L564 500L563 499z"/>
<path style="fill:#272727; stroke:none;" d="M417 500L418 501L417 500M562 500L563 501L562 500z"/>
<path style="fill:#a8a8a8; stroke:none;" d="M418 502L419 503L418 502M561 502L562 503L561 502M419 503L420 504L419 503M560 503L561 504L560 503z"/>
<path style="fill:#585858; stroke:none;" d="M420 504L421 505L420 504M559 504L560 505L559 504M421 505L422 506L421 505M558 505L559 506L558 505z"/>
<path style="fill:#272727; stroke:none;" d="M422 506L423 507L422 506M557 506L558 507L557 506z"/>
<path style="fill:#a8a8a8; stroke:none;" d="M423 508L424 509L423 508M556 508L557 509L556 508M424 509L425 510L424 509M555 509L556 510L555 509z"/>
<path style="fill:#585858; stroke:none;" d="M425 510L426 511L425 510M554 510L555 511L554 510M426 511L427 512L426 511M553 511L554 512L553 511z"/>
<path style="fill:#272727; stroke:none;" d="M427 512L428 513L427 512M552 512L553 513L552 512z"/>
<path style="fill:#a8a8a8; stroke:none;" d="M428 514L429 515L428 514M551 514L552 515L551 514M429 515L430 516L429 515M550 515L551 516L550 515z"/>
<path style="fill:#585858; stroke:none;" d="M430 516L431 517L430 516M549 516L550 517L549 516M431 517L432 518L431 517M548 517L549 518L548 517z"/>
<path style="fill:#272727; stroke:none;" d="M432 518L433 519L432 518M547 518L548 519L547 518z"/>
<path style="fill:#a8a8a8; stroke:none;" d="M433 520L434 521L433 520M546 520L547 521L546 520M434 521L435 522L434 521M545 521L546 522L545 521z"/>
<path style="fill:#585858; stroke:none;" d="M435 522L436 523L435 522M544 522L545 523L544 522M436 523L437 524L436 523M543 523L544 524L543 523z"/>
<path style="fill:#272727; stroke:none;" d="M437 524L438 525L437 524M542 524L543 525L542 524z"/>
<path style="fill:#a8a8a8; stroke:none;" d="M438 526L439 527L438 526M541 526L542 527L541 526M439 527L440 528L439 527M540 527L541 528L540 527z"/>
<path style="fill:#585858; stroke:none;" d="M440 528L441 529L440 528M539 528L540 529L539 528M441 529L442 530L441 529M538 529L539 530L538 529z"/>
<path style="fill:#272727; stroke:none;" d="M442 530L443 531L442 530M537 530L538 531L537 530z"/>
<path style="fill:#a8a8a8; stroke:none;" d="M443 532L444 533L443 532M536 532L537 533L536 532M444 533L445 534L444 533M535 533L536 534L535 533z"/>
<path style="fill:#585858; stroke:none;" d="M445 534L446 535L445 534M534 534L535 535L534 534M446 535L447 536L446 535M533 535L534 536L533 535z"/>
<path style="fill:#272727; stroke:none;" d="M447 536L448 537L447 536M532 536L533 537L532 536z"/>
<path style="fill:#a8a8a8; stroke:none;" d="M448 538L449 539L448 538M531 538L532 539L531 538M449 539L450 540L449 539M530 539L531 540L530 539z"/>
<path style="fill:#585858; stroke:none;" d="M450 540L451 541L450 540M529 540L530 541L529 540M451 541L452 542L451 541M528 541L529 542L528 541z"/>
<path style="fill:#272727; stroke:none;" d="M452 542L453 543L452 542M527 542L528 543L527 542z"/>
<path style="fill:#a8a8a8; stroke:none;" d="M453 544L454 545L453 544M526 544L527 545L526 544M454 545L455 546L454 545M525 545L526 546L525 545z"/>
<path style="fill:#585858; stroke:none;" d="M455 546L456 547L455 546M524 546L525 547L524 546M456 547L457 548L456 547M523 547L524 548L523 547z"/>
<path style="fill:#272727; stroke:none;" d="M457 548L458 549L457 548M522 548L523 549L522 548z"/>
<path style="fill:#a8a8a8; stroke:none;" d="M458 550L459 551L458 550M521 550L522 551L521 550M459 551L460 552L459 551M520 551L521 552L520 551z"/>
<path style="fill:#585858; stroke:none;" d="M460 552L461 553L460 552M519 552L520 553L519 552M461 553L462 554L461 553M518 553L519 554L518 553z"/>
<path style="fill:#272727; stroke:none;" d="M462 554L463 555L462 554M517 554L518 555L517 554z"/>
<path style="fill:#a8a8a8; stroke:none;" d="M463 556L464 557L463 556M516 556L517 557L516 556M464 557L465 558L464 557M515 557L516 558L515 557z"/>
<path style="fill:#585858; stroke:none;" d="M465 558L466 559L465 558M514 558L515 559L514 558M466 559L467 560L466 559M513 559L514 560L513 559z"/>
<path style="fill:#272727; stroke:none;" d="M467 560L468 561L467 560M512 560L513 561L512 560z"/>
<path style="fill:#a8a8a8; stroke:none;" d="M468 562L469 563L468 562M511 562L512 563L511 562M469 563L470 564L469 563M510 563L511 564L510 563z"/>
<path style="fill:#585858; stroke:none;" d="M470 564L471 565L470 564M509 564L510 565L509 564M471 565L472 566L471 565M508 565L509 566L508 565z"/>
<path style="fill:#272727; stroke:none;" d="M472 566L473 567L472 566M507 566L508 567L507 566z"/>
<path style="fill:#a8a8a8; stroke:none;" d="M473 568L474 569L473 568M506 568L507 569L506 568M474 569L475 570L474 569M505 569L506 570L505 569z"/>
<path style="fill:#585858; stroke:none;" d="M475 570L476 571L475 570M504 570L505 571L504 570M476 571L477 572L476 571M503 571L504 572L503 571z"/>
<path style="fill:#272727; stroke:none;" d="M477 572L478 573L477 572M502 572L503 573L502 572z"/>
<path style="fill:#a8a8a8; stroke:none;" d="M478 574L479 575L478 574M501 574L502 575L501 574M479 575L480 576L479 575M500 575L501 576L500 575z"/>
<path style="fill:#585858; stroke:none;" d="M480 576L481 577L480 576M499 576L500 577L499 576M481 577L482 578L481 577M498 577L499 578L498 577z"/>
<path style="fill:#272727; stroke:none;" d="M482 578L483 579L482 578M497 578L498 579L497 578z"/>
<path style="fill:#a8a8a8; stroke:none;" d="M483 580L484 581L483 580M496 580L497 581L496 580M484 581L485 582L484 581M495 581L496 582L495 581z"/>
<path style="fill:#585858; stroke:none;" d="M485 582L486 583L485 582M494 582L495 583L494 582M486 583L487 584L486 583M493 583L494 584L493 583z"/>
<path style="fill:#272727; stroke:none;" d="M487 584L488 585L487 584M492 584L493 585L492 584z"/>
<path style="fill:#a8a8a8; stroke:none;" d="M488 586L489 587L488 586M491 586L492 587L491 586M489.667 587.333L490.333 587.667L489.667 587.333z"/>
</svg>
